<mxfile host="www.draw.io" modified="2019-12-03T04:08:25.563Z" agent="Mozilla/5.0 (Windows NT 10.0; Win64; x64) AppleWebKit/537.36 (KHTML, like Gecko) Chrome/78.0.3904.97 Safari/537.36" etag="y_j6uJfG1wUlkjOtLapG" version="12.3.5" type="github" pages="1">
  <diagram id="Ct7FX3QZdZiHv1qoABlO" name="Page-1">
    <mxGraphModel dx="1878" dy="649" grid="1" gridSize="10" guides="1" tooltips="1" connect="1" arrows="1" fold="1" page="1" pageScale="1" pageWidth="850" pageHeight="1100" math="0" shadow="0">
      <root>
        <mxCell id="0"/>
        <mxCell id="1" parent="0"/>
        <mxCell id="S7RXYdwZjhqqfzKiC_Oa-39" value="" style="rounded=0;whiteSpace=wrap;html=1;" vertex="1" parent="1">
          <mxGeometry x="-11" y="800" width="690" height="470" as="geometry"/>
        </mxCell>
        <mxCell id="S7RXYdwZjhqqfzKiC_Oa-63" value="" style="rounded=0;whiteSpace=wrap;html=1;fontSize=12;fontColor=#333333;align=center;fillColor=#f5f5f5;strokeColor=#CCCCCC;" vertex="1" parent="1">
          <mxGeometry x="39" y="990" width="590" height="230" as="geometry"/>
        </mxCell>
        <mxCell id="S7RXYdwZjhqqfzKiC_Oa-34" value="" style="rounded=0;whiteSpace=wrap;html=1;" vertex="1" parent="1">
          <mxGeometry x="-10" y="210" width="690" height="550" as="geometry"/>
        </mxCell>
        <mxCell id="S7RXYdwZjhqqfzKiC_Oa-6" style="edgeStyle=orthogonalEdgeStyle;rounded=0;orthogonalLoop=1;jettySize=auto;html=1;" edge="1" parent="1" source="S7RXYdwZjhqqfzKiC_Oa-1" target="S7RXYdwZjhqqfzKiC_Oa-2">
          <mxGeometry relative="1" as="geometry"/>
        </mxCell>
        <mxCell id="S7RXYdwZjhqqfzKiC_Oa-1" value="" style="outlineConnect=0;fontColor=#232F3E;gradientColor=none;fillColor=#232F3E;strokeColor=none;dashed=0;verticalLabelPosition=bottom;verticalAlign=top;align=center;html=1;fontSize=12;fontStyle=0;aspect=fixed;pointerEvents=1;shape=mxgraph.aws4.user;" vertex="1" parent="1">
          <mxGeometry x="130" y="330" width="50" height="50" as="geometry"/>
        </mxCell>
        <mxCell id="S7RXYdwZjhqqfzKiC_Oa-11" style="edgeStyle=orthogonalEdgeStyle;rounded=0;orthogonalLoop=1;jettySize=auto;html=1;entryX=0;entryY=0.5;entryDx=0;entryDy=0;" edge="1" parent="1" source="S7RXYdwZjhqqfzKiC_Oa-2" target="S7RXYdwZjhqqfzKiC_Oa-8">
          <mxGeometry relative="1" as="geometry"/>
        </mxCell>
        <mxCell id="S7RXYdwZjhqqfzKiC_Oa-25" style="edgeStyle=orthogonalEdgeStyle;curved=1;rounded=0;orthogonalLoop=1;jettySize=auto;html=1;entryX=0;entryY=0.5;entryDx=0;entryDy=0;fillColor=#ffe6cc;strokeColor=#d79b00;" edge="1" parent="1" source="S7RXYdwZjhqqfzKiC_Oa-2" target="S7RXYdwZjhqqfzKiC_Oa-24">
          <mxGeometry relative="1" as="geometry">
            <Array as="points">
              <mxPoint x="160" y="575"/>
            </Array>
          </mxGeometry>
        </mxCell>
        <mxCell id="S7RXYdwZjhqqfzKiC_Oa-26" value="Search location by VIN_ID" style="text;html=1;align=center;verticalAlign=middle;resizable=0;points=[];;labelBackgroundColor=#ffffff;" vertex="1" connectable="0" parent="S7RXYdwZjhqqfzKiC_Oa-25">
          <mxGeometry x="-0.4207" y="23" relative="1" as="geometry">
            <mxPoint as="offset"/>
          </mxGeometry>
        </mxCell>
        <mxCell id="S7RXYdwZjhqqfzKiC_Oa-2" value="" style="shape=image;html=1;verticalAlign=top;verticalLabelPosition=bottom;labelBackgroundColor=#ffffff;imageAspect=0;aspect=fixed;image=https://cdn4.iconfinder.com/data/icons/help-and-support-5/64/phone-call-service-support-customer-128.png;align=center;" vertex="1" parent="1">
          <mxGeometry x="121" y="440" width="68" height="68" as="geometry"/>
        </mxCell>
        <mxCell id="S7RXYdwZjhqqfzKiC_Oa-7" value="My car was stolen." style="shape=callout;whiteSpace=wrap;html=1;perimeter=calloutPerimeter;position2=0.96;" vertex="1" parent="1">
          <mxGeometry x="20" y="290" width="110" height="60" as="geometry"/>
        </mxCell>
        <mxCell id="S7RXYdwZjhqqfzKiC_Oa-13" style="edgeStyle=orthogonalEdgeStyle;rounded=0;orthogonalLoop=1;jettySize=auto;html=1;entryX=0;entryY=0.5;entryDx=0;entryDy=0;entryPerimeter=0;curved=1;dashed=1;" edge="1" parent="1" source="S7RXYdwZjhqqfzKiC_Oa-8" target="S7RXYdwZjhqqfzKiC_Oa-12">
          <mxGeometry relative="1" as="geometry"/>
        </mxCell>
        <mxCell id="S7RXYdwZjhqqfzKiC_Oa-8" value="GPS Activator" style="rounded=0;whiteSpace=wrap;html=1;" vertex="1" parent="1">
          <mxGeometry x="260" y="454" width="90" height="40" as="geometry"/>
        </mxCell>
        <mxCell id="S7RXYdwZjhqqfzKiC_Oa-12" value="" style="shape=mxgraph.signs.transportation.car_3;html=1;fillColor=#000000;strokeColor=none;verticalLabelPosition=bottom;verticalAlign=top;align=center;" vertex="1" parent="1">
          <mxGeometry x="460" y="455" width="99" height="38" as="geometry"/>
        </mxCell>
        <mxCell id="S7RXYdwZjhqqfzKiC_Oa-19" style="edgeStyle=orthogonalEdgeStyle;curved=1;rounded=0;orthogonalLoop=1;jettySize=auto;html=1;fillColor=#d5e8d4;strokeColor=#82b366;" edge="1" parent="1" source="S7RXYdwZjhqqfzKiC_Oa-17" target="S7RXYdwZjhqqfzKiC_Oa-18">
          <mxGeometry relative="1" as="geometry">
            <Array as="points">
              <mxPoint x="571" y="575"/>
            </Array>
          </mxGeometry>
        </mxCell>
        <mxCell id="S7RXYdwZjhqqfzKiC_Oa-27" value="Save location" style="text;html=1;align=center;verticalAlign=middle;resizable=0;points=[];;labelBackgroundColor=#ffffff;" vertex="1" connectable="0" parent="S7RXYdwZjhqqfzKiC_Oa-19">
          <mxGeometry x="-0.206" y="-15" relative="1" as="geometry">
            <mxPoint as="offset"/>
          </mxGeometry>
        </mxCell>
        <mxCell id="S7RXYdwZjhqqfzKiC_Oa-17" value="FCA" style="outlineConnect=0;fontColor=#232F3E;gradientColor=none;fillColor=#277116;strokeColor=none;dashed=0;verticalLabelPosition=bottom;verticalAlign=top;align=center;html=1;fontSize=12;fontStyle=0;aspect=fixed;pointerEvents=1;shape=mxgraph.aws4.car;" vertex="1" parent="1">
          <mxGeometry x="559" y="462" width="24" height="24" as="geometry"/>
        </mxCell>
        <mxCell id="S7RXYdwZjhqqfzKiC_Oa-22" value="Create" style="edgeStyle=orthogonalEdgeStyle;curved=1;rounded=0;orthogonalLoop=1;jettySize=auto;html=1;fillColor=#d5e8d4;strokeColor=#82b366;" edge="1" parent="1" source="S7RXYdwZjhqqfzKiC_Oa-18" target="S7RXYdwZjhqqfzKiC_Oa-21">
          <mxGeometry y="24" relative="1" as="geometry">
            <Array as="points">
              <mxPoint x="470" y="620"/>
              <mxPoint x="470" y="620"/>
            </Array>
            <mxPoint as="offset"/>
          </mxGeometry>
        </mxCell>
        <mxCell id="S7RXYdwZjhqqfzKiC_Oa-38" value="Search" style="rounded=0;orthogonalLoop=1;jettySize=auto;html=1;entryX=0.25;entryY=0;entryDx=0;entryDy=0;fontColor=#333333;exitX=0.25;exitY=1;exitDx=0;exitDy=0;fillColor=#ffe6cc;strokeColor=#d79b00;" edge="1" parent="1">
          <mxGeometry x="-0.0065" y="-23" relative="1" as="geometry">
            <mxPoint x="443" y="600" as="sourcePoint"/>
            <mxPoint x="443.5" y="660" as="targetPoint"/>
            <mxPoint as="offset"/>
          </mxGeometry>
        </mxCell>
        <mxCell id="S7RXYdwZjhqqfzKiC_Oa-18" value="Gate way" style="rounded=0;whiteSpace=wrap;html=1;" vertex="1" parent="1">
          <mxGeometry x="424.5" y="550" width="62" height="50" as="geometry"/>
        </mxCell>
        <mxCell id="S7RXYdwZjhqqfzKiC_Oa-21" value="SVT" style="rounded=0;whiteSpace=wrap;html=1;fillColor=#fff2cc;strokeColor=#d6b656;" vertex="1" parent="1">
          <mxGeometry x="425" y="660" width="62" height="50" as="geometry"/>
        </mxCell>
        <mxCell id="S7RXYdwZjhqqfzKiC_Oa-37" style="edgeStyle=orthogonalEdgeStyle;curved=1;rounded=0;orthogonalLoop=1;jettySize=auto;html=1;entryX=0;entryY=0.5;entryDx=0;entryDy=0;fontColor=#333333;fillColor=#ffe6cc;strokeColor=#d79b00;" edge="1" parent="1" source="S7RXYdwZjhqqfzKiC_Oa-24" target="S7RXYdwZjhqqfzKiC_Oa-18">
          <mxGeometry relative="1" as="geometry"/>
        </mxCell>
        <mxCell id="S7RXYdwZjhqqfzKiC_Oa-24" value="ABS" style="rounded=0;whiteSpace=wrap;html=1;" vertex="1" parent="1">
          <mxGeometry x="260" y="550" width="62" height="50" as="geometry"/>
        </mxCell>
        <mxCell id="S7RXYdwZjhqqfzKiC_Oa-35" value="SVT (Stolen vehicle tracking ) :&lt;span style=&quot;color: rgb(51 , 51 , 51) ; font-weight: 400&quot;&gt;&amp;nbsp;Business flow&lt;/span&gt;" style="text;html=1;strokeColor=none;fillColor=none;align=left;verticalAlign=middle;whiteSpace=wrap;rounded=0;fontStyle=1;spacingLeft=9;" vertex="1" parent="1">
          <mxGeometry x="-10" y="210" width="290" height="30" as="geometry"/>
        </mxCell>
        <mxCell id="S7RXYdwZjhqqfzKiC_Oa-44" value="" style="group" vertex="1" connectable="0" parent="1">
          <mxGeometry x="448" y="900" width="70" height="55" as="geometry"/>
        </mxCell>
        <mxCell id="S7RXYdwZjhqqfzKiC_Oa-41" value="MySQL" style="shape=cylinder;whiteSpace=wrap;html=1;boundedLbl=1;backgroundOutline=1;fontColor=#333333;align=center;" vertex="1" parent="S7RXYdwZjhqqfzKiC_Oa-44">
          <mxGeometry x="2" width="66" height="55" as="geometry"/>
        </mxCell>
        <mxCell id="S7RXYdwZjhqqfzKiC_Oa-43" value="AWS RDS" style="text;html=1;strokeColor=none;fillColor=none;align=center;verticalAlign=middle;whiteSpace=wrap;rounded=0;fontColor=#333333;fontSize=7;" vertex="1" parent="S7RXYdwZjhqqfzKiC_Oa-44">
          <mxGeometry y="4.5" width="70" height="10" as="geometry"/>
        </mxCell>
        <mxCell id="S7RXYdwZjhqqfzKiC_Oa-45" value="" style="group" vertex="1" connectable="0" parent="1">
          <mxGeometry x="180" y="902.5" width="90" height="50" as="geometry"/>
        </mxCell>
        <mxCell id="S7RXYdwZjhqqfzKiC_Oa-40" value="SVT" style="rounded=0;whiteSpace=wrap;html=1;fillColor=#fff2cc;strokeColor=#d6b656;" vertex="1" parent="S7RXYdwZjhqqfzKiC_Oa-45">
          <mxGeometry width="90" height="50" as="geometry"/>
        </mxCell>
        <mxCell id="S7RXYdwZjhqqfzKiC_Oa-42" value="cloud foundry" style="text;html=1;strokeColor=none;fillColor=none;align=left;verticalAlign=middle;whiteSpace=wrap;rounded=0;fontColor=#333333;fontSize=8;" vertex="1" parent="S7RXYdwZjhqqfzKiC_Oa-45">
          <mxGeometry width="70" height="10" as="geometry"/>
        </mxCell>
        <mxCell id="S7RXYdwZjhqqfzKiC_Oa-58" style="edgeStyle=none;rounded=0;orthogonalLoop=1;jettySize=auto;html=1;entryX=0.5;entryY=0;entryDx=0;entryDy=0;fontSize=12;fontColor=#333333;" edge="1" parent="1" source="S7RXYdwZjhqqfzKiC_Oa-46" target="S7RXYdwZjhqqfzKiC_Oa-56">
          <mxGeometry relative="1" as="geometry"/>
        </mxCell>
        <mxCell id="S7RXYdwZjhqqfzKiC_Oa-59" style="edgeStyle=none;rounded=0;orthogonalLoop=1;jettySize=auto;html=1;entryX=0.5;entryY=0;entryDx=0;entryDy=0;fontSize=12;fontColor=#333333;" edge="1" parent="1" source="S7RXYdwZjhqqfzKiC_Oa-46" target="S7RXYdwZjhqqfzKiC_Oa-57">
          <mxGeometry relative="1" as="geometry"/>
        </mxCell>
        <mxCell id="S7RXYdwZjhqqfzKiC_Oa-46" value="Prometheus" style="rounded=0;whiteSpace=wrap;html=1;fontSize=12;fontColor=#333333;align=center;" vertex="1" parent="1">
          <mxGeometry x="180" y="1022.5" width="90" height="40" as="geometry"/>
        </mxCell>
        <mxCell id="S7RXYdwZjhqqfzKiC_Oa-54" value="Log" style="edgeStyle=none;rounded=0;orthogonalLoop=1;jettySize=auto;html=1;fontSize=12;fontColor=#333333;" edge="1" parent="1" source="S7RXYdwZjhqqfzKiC_Oa-47">
          <mxGeometry y="10" relative="1" as="geometry">
            <mxPoint x="450" y="1042.5" as="targetPoint"/>
            <mxPoint as="offset"/>
          </mxGeometry>
        </mxCell>
        <mxCell id="S7RXYdwZjhqqfzKiC_Oa-47" value="Log stash" style="rounded=0;whiteSpace=wrap;html=1;fontSize=12;fontColor=#333333;align=center;" vertex="1" parent="1">
          <mxGeometry x="300" y="1022.5" width="90" height="40" as="geometry"/>
        </mxCell>
        <mxCell id="S7RXYdwZjhqqfzKiC_Oa-48" style="edgeStyle=none;rounded=0;orthogonalLoop=1;jettySize=auto;html=1;entryX=0.5;entryY=0;entryDx=0;entryDy=0;fontSize=12;fontColor=#333333;" edge="1" parent="1" source="S7RXYdwZjhqqfzKiC_Oa-40" target="S7RXYdwZjhqqfzKiC_Oa-46">
          <mxGeometry relative="1" as="geometry"/>
        </mxCell>
        <mxCell id="S7RXYdwZjhqqfzKiC_Oa-49" style="edgeStyle=none;rounded=0;orthogonalLoop=1;jettySize=auto;html=1;entryX=0.178;entryY=-0.035;entryDx=0;entryDy=0;entryPerimeter=0;fontSize=12;fontColor=#333333;" edge="1" parent="1" source="S7RXYdwZjhqqfzKiC_Oa-40" target="S7RXYdwZjhqqfzKiC_Oa-47">
          <mxGeometry relative="1" as="geometry"/>
        </mxCell>
        <mxCell id="S7RXYdwZjhqqfzKiC_Oa-50" style="edgeStyle=none;rounded=0;orthogonalLoop=1;jettySize=auto;html=1;entryX=0;entryY=0.5;entryDx=0;entryDy=0;fontSize=12;fontColor=#333333;" edge="1" parent="1" source="S7RXYdwZjhqqfzKiC_Oa-40" target="S7RXYdwZjhqqfzKiC_Oa-41">
          <mxGeometry relative="1" as="geometry"/>
        </mxCell>
        <mxCell id="S7RXYdwZjhqqfzKiC_Oa-51" value="" style="group" vertex="1" connectable="0" parent="1">
          <mxGeometry x="450" y="1012.5" width="70" height="55" as="geometry"/>
        </mxCell>
        <mxCell id="S7RXYdwZjhqqfzKiC_Oa-52" value="" style="shape=cylinder;whiteSpace=wrap;html=1;boundedLbl=1;backgroundOutline=1;fontColor=#333333;align=center;" vertex="1" parent="S7RXYdwZjhqqfzKiC_Oa-51">
          <mxGeometry x="2" width="66" height="55" as="geometry"/>
        </mxCell>
        <mxCell id="S7RXYdwZjhqqfzKiC_Oa-53" value="AWS Elastic search" style="text;html=1;strokeColor=none;fillColor=none;align=center;verticalAlign=middle;whiteSpace=wrap;rounded=0;fontColor=#333333;fontSize=7;" vertex="1" parent="S7RXYdwZjhqqfzKiC_Oa-51">
          <mxGeometry y="4.5" width="70" height="10" as="geometry"/>
        </mxCell>
        <mxCell id="S7RXYdwZjhqqfzKiC_Oa-55" value="Kibana" style="rounded=0;whiteSpace=wrap;html=1;fontSize=12;fontColor=#333333;align=center;" vertex="1" parent="1">
          <mxGeometry x="440" y="1122" width="90" height="40" as="geometry"/>
        </mxCell>
        <mxCell id="S7RXYdwZjhqqfzKiC_Oa-56" value="Garfana" style="rounded=0;whiteSpace=wrap;html=1;fontSize=12;fontColor=#333333;align=center;" vertex="1" parent="1">
          <mxGeometry x="90" y="1122" width="90" height="40" as="geometry"/>
        </mxCell>
        <mxCell id="S7RXYdwZjhqqfzKiC_Oa-57" value="Alert manager" style="rounded=0;whiteSpace=wrap;html=1;fontSize=12;fontColor=#333333;align=center;" vertex="1" parent="1">
          <mxGeometry x="210" y="1122" width="90" height="40" as="geometry"/>
        </mxCell>
        <mxCell id="S7RXYdwZjhqqfzKiC_Oa-60" style="edgeStyle=none;rounded=0;orthogonalLoop=1;jettySize=auto;html=1;entryX=0.5;entryY=0;entryDx=0;entryDy=0;fontSize=12;fontColor=#333333;" edge="1" parent="1" source="S7RXYdwZjhqqfzKiC_Oa-52" target="S7RXYdwZjhqqfzKiC_Oa-55">
          <mxGeometry relative="1" as="geometry"/>
        </mxCell>
        <mxCell id="S7RXYdwZjhqqfzKiC_Oa-62" value="SVT (Stolen vehicle tracking ) :&lt;font color=&quot;#333333&quot;&gt;&lt;span style=&quot;font-weight: 400&quot;&gt;&amp;nbsp;Maintenance&amp;nbsp;tool&lt;/span&gt;&lt;/font&gt;" style="text;html=1;strokeColor=none;fillColor=none;align=left;verticalAlign=middle;whiteSpace=wrap;rounded=0;fontStyle=1;spacingLeft=9;" vertex="1" parent="1">
          <mxGeometry x="-10" y="800" width="400" height="30" as="geometry"/>
        </mxCell>
      </root>
    </mxGraphModel>
  </diagram>
</mxfile>
